<?xml version="1.0" encoding="iso-8859-1"?>
<!-- Generator: Adobe Illustrator 19.0.0, SVG Export Plug-In . SVG Version: 6.00 Build 0)  -->
<svg version="1.1" id="Capa_1" xmlns="http://www.w3.org/2000/svg" xmlns:xlink="http://www.w3.org/1999/xlink" x="0px" y="0px"
	 viewBox="0 0 511.999 511.999" style="enable-background:new 0 0 511.999 511.999;" xml:space="preserve">
<path style="fill:#775146;" d="M322.884,54.903H189.116c-18.202,0-32.958,14.756-32.958,32.958v59.104h27.23V87.861
	c0-3.164,2.565-5.728,5.728-5.728h133.768c3.164,0,5.728,2.565,5.728,5.728v59.104h27.23V87.861
	C355.842,69.659,341.086,54.903,322.884,54.903z"/>
<path style="fill:#927266;" d="M486.087,465.18H25.913c-10.283,0-18.62-8.336-18.62-18.62V146.178c0-10.283,8.336-18.62,18.62-18.62
	h460.173c10.283,0,18.62,8.336,18.62,18.62V446.56C504.707,456.844,496.37,465.18,486.087,465.18z"/>
<g>
	<path style="fill:#FEE570;" d="M164.624,320.716H100.04c-3.112,0-5.635-2.523-5.635-5.635v-32.168c0-3.112,2.523-5.635,5.635-5.635
		h64.584c3.112,0,5.635,2.523,5.635,5.635v32.168C170.259,318.194,167.736,320.716,164.624,320.716z"/>
	<path style="fill:#FEE570;" d="M411.96,320.716h-64.584c-3.112,0-5.635-2.523-5.635-5.635v-32.168c0-3.112,2.523-5.635,5.635-5.635
		h64.584c3.112,0,5.635,2.523,5.635,5.635v32.168C417.595,318.194,415.072,320.716,411.96,320.716z"/>
</g>
<path style="fill:#82635A;" d="M486.087,127.559h-27.094c0,0.048,0.007,0.094,0.007,0.143v300.381c0,10.283-8.336,18.62-18.62,18.62
	H7.301c0.078,10.217,8.377,18.477,18.613,18.477h460.173c10.283,0,18.62-8.336,18.62-18.62V146.178
	C504.707,135.895,496.37,127.559,486.087,127.559z"/>
<path style="fill:#998675;" d="M486.087,127.559H25.913c-10.283,0-18.62,8.336-18.62,18.62v92.683
	c0,34.996,28.37,63.365,63.365,63.365h370.683c34.996,0,63.365-28.37,63.365-63.365v-92.683
	C504.707,135.895,496.37,127.559,486.087,127.559z"/>
<path style="fill:#897666;" d="M503.869,140.641c-0.622-1.999-1.587-3.84-2.801-5.487c-0.557-0.755-1.153-1.48-1.815-2.142
	s-1.387-1.258-2.142-1.815c-1.647-1.214-3.488-2.18-5.487-2.801c-1.749-0.544-3.609-0.837-5.537-0.837h-27.094
	c0,0.048,0.007,0.094,0.007,0.143v136.342c0,9.697-7.777,17.732-17.474,17.76c-0.061,0-0.123,0-0.184,0H70.659
	c-34.996,0-63.365-28.37-63.365-63.365v20.422c0,34.996,28.37,63.365,63.365,63.365h370.683c6.131,0,12.051-0.888,17.658-2.512l0,0
	l0,0c0.822-0.238,1.636-0.492,2.444-0.762c0.008-0.003,0.015-0.005,0.023-0.008c4.023-1.347,7.864-3.085,11.482-5.172
	c0.042-0.024,0.085-0.049,0.127-0.073c0.696-0.404,1.384-0.82,2.064-1.249c0.037-0.023,0.073-0.047,0.109-0.07
	c2.74-1.74,5.336-3.683,7.769-5.81c0.091-0.079,0.183-0.157,0.273-0.236c0.522-0.461,1.034-0.933,1.54-1.411
	c0.153-0.144,0.305-0.29,0.457-0.435c0.483-0.465,0.96-0.935,1.428-1.415c0.063-0.065,0.125-0.13,0.188-0.195
	c1.554-1.637,3.057-3.323,4.436-5.11c0.156-0.202,0.317-0.398,0.472-0.601c0.344-0.453,0.676-0.914,1.008-1.376
	c0.213-0.296,0.426-0.592,0.634-0.892c0.303-0.437,0.599-0.879,0.891-1.324c0.224-0.341,0.444-0.686,0.661-1.032
	c0.27-0.43,0.54-0.86,0.8-1.296c0.233-0.391,0.456-0.788,0.681-1.184c0.231-0.408,0.468-0.812,0.69-1.226
	c0.413-0.767,0.811-1.544,1.193-2.329c0.17-0.35,0.326-0.707,0.49-1.06c0.235-0.508,0.47-1.016,0.692-1.532
	c0.165-0.382,0.32-0.768,0.477-1.153c0.206-0.504,0.407-1.01,0.6-1.521c0.145-0.385,0.287-0.771,0.425-1.159
	c0.192-0.54,0.374-1.085,0.552-1.633c0.117-0.361,0.237-0.72,0.348-1.084c0.209-0.684,0.401-1.375,0.587-2.068
	c0.062-0.232,0.132-0.461,0.192-0.694c0.235-0.92,0.448-1.849,0.643-2.785c0.06-0.29,0.11-0.583,0.166-0.875
	c0.129-0.669,0.252-1.341,0.36-2.017c0.057-0.355,0.107-0.712,0.157-1.069c0.09-0.632,0.171-1.266,0.242-1.904
	c0.04-0.363,0.08-0.725,0.114-1.089c0.063-0.675,0.113-1.353,0.155-2.034c0.02-0.32,0.045-0.637,0.06-0.958
	c0.047-0.998,0.076-2,0.076-3.009v-20.425v-72.261C504.707,144.251,504.414,142.391,503.869,140.641z"/>
<path style="fill:#FFB125;" d="M132.332,367.695L132.332,367.695c-11.547,0-20.909-9.361-20.909-20.909v-112.37
	c0-2.273,1.843-4.116,4.116-4.116h33.586c2.273,0,4.116,1.843,4.116,4.116v112.37C153.24,358.333,143.879,367.695,132.332,367.695z"
	/>
<path style="fill:#FEE570;" d="M164.624,320.716H100.04c-3.112,0-5.635-2.523-5.635-5.635v-32.168c0-3.112,2.523-5.635,5.635-5.635
	h64.584c3.112,0,5.635,2.523,5.635,5.635v32.168C170.259,318.194,167.736,320.716,164.624,320.716z"/>
<path style="fill:#FF901D;" d="M149.125,230.3h-17.991c2.273,0,4.116,1.843,4.116,4.116v112.37c0,8.322-4.874,15.487-11.913,18.853
	c2.728,1.304,5.77,2.056,8.995,2.056l0,0c11.547,0,20.908-9.361,20.908-20.909v-112.37C153.24,232.143,151.398,230.3,149.125,230.3z
	"/>
<path style="fill:#FFB125;" d="M379.668,367.695L379.668,367.695c-11.547,0-20.909-9.361-20.909-20.909v-112.37
	c0-2.273,1.843-4.116,4.116-4.116h33.586c2.273,0,4.116,1.843,4.116,4.116v112.37C400.577,358.333,391.216,367.695,379.668,367.695z
	"/>
<path style="fill:#FF901D;" d="M396.461,230.3H378.47c2.273,0,4.116,1.843,4.116,4.116v112.37c0,8.322-4.874,15.487-11.913,18.853
	c2.728,1.304,5.77,2.056,8.995,2.056l0,0c11.547,0,20.908-9.361,20.908-20.909v-112.37C400.577,232.143,398.734,230.3,396.461,230.3
	z"/>
<path style="fill:#FEE570;" d="M411.96,320.716h-64.584c-3.112,0-5.635-2.523-5.635-5.635v-32.168c0-3.112,2.523-5.635,5.635-5.635
	h64.584c3.112,0,5.635,2.523,5.635,5.635v32.168C417.595,318.194,415.072,320.716,411.96,320.716z"/>
<g>
	<path style="fill:#FFB125;" d="M164.624,277.279h-32.292v43.438h32.292c3.112,0,5.635-2.523,5.635-5.635v-32.168
		C170.259,279.801,167.736,277.279,164.624,277.279z"/>
	<path style="fill:#FFB125;" d="M411.96,277.279h-32.292v43.438h32.292c3.112,0,5.635-2.523,5.635-5.635v-32.168
		C417.595,279.801,415.072,277.279,411.96,277.279z"/>
</g>
<path style="fill:#927266;" d="M304.68,90.174h-97.36c-2.851,0-5.162-2.311-5.162-5.162v-33.03c0-2.851,2.311-5.162,5.162-5.162
	h97.36c2.851,0,5.162,2.311,5.162,5.162v33.03C309.842,87.863,307.531,90.174,304.68,90.174z"/>
<path style="fill:#82635A;" d="M304.68,68.497h-97.36c-2.851,0-5.162-2.311-5.162-5.162v21.677c0,2.851,2.311,5.162,5.162,5.162
	h97.36c2.851,0,5.162-2.311,5.162-5.162V63.334C309.842,66.186,307.531,68.497,304.68,68.497z"/>
<path d="M486.087,120.265h-41.204c-4.029,0-7.294,3.266-7.294,7.294s3.265,7.294,7.294,7.294h41.204
	c6.245,0,11.326,5.081,11.326,11.326v92.683c0,30.918-25.154,56.071-56.071,56.071h-16.453v-12.02l0,0
	c0-6.238-4.441-11.458-10.327-12.665c-0.841-0.172-1.711-0.263-2.602-0.263h-4.089v-35.569c0-6.291-5.118-11.409-11.41-11.409
	h-33.586c-6.291,0-11.409,5.118-11.409,11.409v35.569h-4.09c-0.891,0-1.761,0.091-2.602,0.263
	c-5.886,1.207-10.326,6.427-10.326,12.665l0,0v12.02H177.553v-12.02l0,0c0-6.238-4.44-11.458-10.326-12.665
	c-0.841-0.172-1.711-0.263-2.602-0.263h-4.09v-35.569c0-6.291-5.118-11.409-11.409-11.409H115.54
	c-6.291,0-11.409,5.118-11.409,11.409v35.569h-4.09c-0.891,0-1.761,0.091-2.602,0.263c-5.886,1.207-10.326,6.427-10.326,12.665l0,0
	v12.02H70.659c-30.918,0-56.071-25.154-56.071-56.071v-92.683c0-6.245,5.081-11.326,11.326-11.326h372.719
	c4.029,0,7.294-3.266,7.294-7.294c0-4.028-3.265-7.294-7.294-7.294h-35.496V87.861c0-22.195-18.057-40.251-40.252-40.251h-6.556
	c-1.776-4.714-6.321-8.083-11.649-8.083h-97.36c-5.328,0-9.872,3.369-11.648,8.083h-6.556c-22.195,0-40.251,18.057-40.251,40.251
	v32.405H25.913C11.625,120.265,0,131.889,0,146.178v92.683v112.539c0,4.028,3.266,7.294,7.294,7.294s7.294-3.266,7.294-7.294
	v-69.613c12.926,16.845,33.246,27.733,56.071,27.733h16.453v5.561c0,7.128,5.8,12.928,12.928,12.928h4.09v18.776
	c0,15.551,12.651,28.202,28.202,28.202s28.202-12.651,28.202-28.202V328.01h4.09c7.129,0,12.929-5.8,12.929-12.928v-5.561h156.895
	v5.561c0,7.128,5.8,12.928,12.928,12.928h4.09v18.776c0,15.551,12.652,28.202,28.202,28.202s28.202-12.651,28.202-28.202V328.01
	h4.089c7.129,0,12.929-5.8,12.929-12.928v-5.561h16.453c22.825,0,43.145-10.888,56.071-27.733V446.56
	c0,6.245-5.081,11.326-11.326,11.326H25.913c-6.245,0-11.326-5.081-11.326-11.326v-48.909c0-4.028-3.266-7.294-7.294-7.294
	S0,393.622,0,397.651v48.909c0,14.289,11.625,25.913,25.913,25.913h460.173c14.289,0,25.913-11.625,25.913-25.913V238.861v-92.683
	C512,131.889,500.376,120.265,486.087,120.265z M317.136,62.196h5.749c14.151,0,25.665,11.513,25.665,25.664v32.405h-12.643V87.861
	c0-7.181-5.842-13.022-13.021-13.022h-5.749V62.196H317.136z M209.452,54.112h93.097V82.88h-93.097L209.452,54.112L209.452,54.112z
	 M195.687,89.426c1.787,4.693,6.321,8.042,11.633,8.042h97.359c5.312,0,9.846-3.349,11.633-8.042h5.005v30.839H190.681V89.426
	H195.687z M163.452,87.861c0-14.151,11.513-25.664,25.664-25.664h5.749v12.642h-5.749c-7.18,0-13.022,5.842-13.022,13.022v32.405
	h-12.642V87.861z M118.717,237.593h27.23v32.391h-27.23C118.717,269.984,118.717,237.593,118.717,237.593z M145.947,346.786
	c0,7.507-6.107,13.615-13.615,13.615c-7.507,0-13.615-6.107-13.615-13.615V328.01h27.23V346.786z M162.965,302.227v11.195h-9.725
	h-41.817h-9.725v-11.195v-17.655h9.725h41.817h9.725V302.227z M366.054,237.593h27.23v32.391h-27.23V237.593z M393.283,346.786
	c0,7.507-6.107,13.615-13.615,13.615c-7.507,0-13.615-6.107-13.615-13.615V328.01h27.23L393.283,346.786L393.283,346.786z
	 M410.302,302.227v11.195h-9.725H358.76h-9.725v-11.195v-17.655h9.725h41.817h9.725L410.302,302.227L410.302,302.227z"/>
<g>
</g>
<g>
</g>
<g>
</g>
<g>
</g>
<g>
</g>
<g>
</g>
<g>
</g>
<g>
</g>
<g>
</g>
<g>
</g>
<g>
</g>
<g>
</g>
<g>
</g>
<g>
</g>
<g>
</g>
</svg>
